# Blender v2.80 (sub 75) OBJ File: ''
# www.blender.org
mtllib midbox1.mtl
o MidBox_BoxesOBJ.002
v -1.000000 -0.569447 1.500001
v -0.500000 -0.569447 1.500001
v -0.500000 -0.284724 1.500001
v -1.000000 -0.284724 1.500001
v 0.000000 -0.569447 1.500001
v 0.000000 -0.284724 1.500001
v 0.500000 -0.569447 1.500001
v 0.500000 -0.284724 1.500001
v 1.000000 -0.569447 1.500001
v 1.000000 -0.284724 1.500001
v -0.500000 0.000000 1.500001
v -1.000000 0.000000 1.500001
v 0.000000 0.000000 1.500001
v 0.500000 0.000000 1.500001
v 1.000000 0.000000 1.500001
v -0.500000 0.284723 1.500001
v -1.000000 0.284723 1.500001
v 0.000000 0.284723 1.500001
v 0.500000 0.284723 1.500001
v 1.000000 0.284723 1.500001
v -0.500000 0.569446 1.500002
v -1.000000 0.569446 1.500002
v 0.000000 0.569446 1.500002
v 0.500000 0.569446 1.500002
v 1.000000 0.569446 1.500002
v -0.500000 0.569446 0.750002
v -1.000000 0.569446 0.750002
v 0.000000 0.569446 0.750002
v 0.500000 0.569446 0.750002
v 1.000000 0.569446 0.750002
v -0.500000 0.569446 0.000002
v -1.000000 0.569446 0.000002
v 0.000000 0.569446 0.000002
v 0.500000 0.569446 0.000002
v 1.000000 0.569446 0.000002
v -0.500000 0.569447 -0.749998
v -1.000000 0.569447 -0.749998
v 0.000000 0.569447 -0.749998
v 0.500000 0.569447 -0.749998
v 1.000000 0.569447 -0.749998
v -0.500000 0.569447 -1.499998
v -1.000000 0.569447 -1.499998
v 0.000000 0.569447 -1.499998
v 0.500000 0.569447 -1.499998
v 1.000000 0.569447 -1.499998
v -0.500000 0.284724 -1.499999
v -1.000000 0.284724 -1.499999
v 0.000000 0.284724 -1.499999
v 0.500000 0.284724 -1.499999
v 1.000000 0.284724 -1.499999
v -0.500000 0.000001 -1.499999
v -1.000000 0.000001 -1.499999
v 0.000000 0.000001 -1.499999
v 0.500000 0.000001 -1.499999
v 1.000000 0.000001 -1.499999
v -0.500000 -0.284723 -1.499999
v -1.000000 -0.284723 -1.499999
v 0.000000 -0.284723 -1.499999
v 0.500000 -0.284723 -1.499999
v 1.000000 -0.284723 -1.499999
v -0.500000 -0.569446 -1.499999
v -1.000000 -0.569446 -1.499999
v 0.000000 -0.569446 -1.499999
v 0.500000 -0.569446 -1.499999
v 1.000000 -0.569446 -1.499999
v -0.500000 -0.569446 -0.749999
v -1.000000 -0.569446 -0.749999
v 0.000000 -0.569446 -0.749999
v 0.500000 -0.569446 -0.749999
v 1.000000 -0.569446 -0.749999
v -0.500000 -0.569447 0.000001
v -1.000000 -0.569447 0.000001
v 0.000000 -0.569447 0.000001
v 0.500000 -0.569447 0.000001
v 1.000000 -0.569447 0.000001
v -0.500000 -0.569447 0.750001
v -1.000000 -0.569447 0.750001
v 0.000000 -0.569447 0.750001
v 0.500000 -0.569447 0.750001
v 1.000000 -0.569447 0.750001
v 1.000000 -0.284723 -0.749999
v 1.000000 -0.284724 0.000001
v 1.000000 -0.284724 0.750001
v 1.000000 0.000001 -0.749999
v 1.000000 0.000000 0.000001
v 1.000000 0.000000 0.750001
v 1.000000 0.284724 -0.749999
v 1.000000 0.284723 0.000001
v 1.000000 0.284723 0.750001
v -1.000000 -0.284723 -0.749999
v -1.000000 -0.284724 0.000001
v -1.000000 -0.284724 0.750001
v -1.000000 0.000001 -0.749999
v -1.000000 0.000000 0.000001
v -1.000000 0.000000 0.750001
v -1.000000 0.284724 -0.749999
v -1.000000 0.284723 0.000001
v -1.000000 0.284723 0.750001
vt 0.382013 0.015955
vt 0.440852 0.015946
vt 0.440854 0.049450
vt 0.382017 0.049458
vt 0.499696 0.015946
vt 0.499691 0.049452
vt 0.558539 0.015964
vt 0.558528 0.049468
vt 0.617378 0.015987
vt 0.617365 0.049490
vt 0.440853 0.082955
vt 0.382018 0.082958
vt 0.499686 0.082961
vt 0.558520 0.082972
vt 0.617356 0.082990
vt 0.440849 0.116462
vt 0.382016 0.116455
vt 0.499681 0.116469
vt 0.558513 0.116478
vt 0.617348 0.116491
vt 0.440845 0.149968
vt 0.382015 0.149957
vt 0.499675 0.149976
vt 0.558506 0.149983
vt 0.617336 0.149993
vt 0.440833 0.238224
vt 0.382003 0.238211
vt 0.499663 0.238233
vt 0.558493 0.238241
vt 0.617323 0.238247
vt 0.440816 0.326480
vt 0.381981 0.326466
vt 0.499650 0.326490
vt 0.558484 0.326498
vt 0.617320 0.326502
vt 0.440796 0.414736
vt 0.381955 0.414722
vt 0.499637 0.414747
vt 0.558477 0.414753
vt 0.617319 0.414758
vt 0.440782 0.502991
vt 0.381939 0.502979
vt 0.499625 0.503001
vt 0.558467 0.503009
vt 0.617309 0.503016
vt 0.440779 0.536495
vt 0.381941 0.536487
vt 0.499620 0.536506
vt 0.558459 0.536516
vt 0.617297 0.536527
vt 0.440775 0.570001
vt 0.381939 0.569994
vt 0.499613 0.570012
vt 0.558452 0.570023
vt 0.617289 0.570035
vt 0.440770 0.603508
vt 0.381934 0.603498
vt 0.499608 0.603518
vt 0.558445 0.603529
vt 0.617282 0.603541
vt 0.440765 0.637015
vt 0.381928 0.637004
vt 0.499601 0.637023
vt 0.558440 0.637034
vt 0.617278 0.637046
vt 0.440751 0.725271
vt 0.381915 0.725260
vt 0.499587 0.725279
vt 0.558422 0.725289
vt 0.617258 0.725301
vt 0.440733 0.813527
vt 0.381896 0.813517
vt 0.499569 0.813535
vt 0.558406 0.813543
vt 0.617243 0.813554
vt 0.440723 0.901783
vt 0.381886 0.901776
vt 0.499559 0.901790
vt 0.558395 0.901798
vt 0.617230 0.901805
vt 0.440715 0.990039
vt 0.381877 0.990032
vt 0.499551 0.990044
vt 0.558387 0.990052
vt 0.617224 0.990058
vt 0.751356 0.414745
vt 0.751364 0.503003
vt 0.717854 0.503008
vt 0.717850 0.414753
vt 0.751332 0.326489
vt 0.717827 0.326498
vt 0.751321 0.238237
vt 0.717820 0.238243
vt 0.751314 0.149983
vt 0.717812 0.149987
vt 0.684340 0.503011
vt 0.684341 0.414757
vt 0.684325 0.326501
vt 0.684319 0.238246
vt 0.684317 0.149992
vt 0.650826 0.503013
vt 0.650830 0.414759
vt 0.650823 0.326504
vt 0.650820 0.238249
vt 0.650826 0.149993
vt 0.247889 0.502925
vt 0.247927 0.414670
vt 0.281432 0.414686
vt 0.281398 0.502941
vt 0.247967 0.326415
vt 0.281469 0.326430
vt 0.247998 0.238162
vt 0.281503 0.238176
vt 0.248033 0.149907
vt 0.281533 0.149921
vt 0.314939 0.414698
vt 0.314911 0.502953
vt 0.314972 0.326444
vt 0.315005 0.238189
vt 0.315031 0.149934
vt 0.348447 0.414711
vt 0.348423 0.502966
vt 0.348477 0.326455
vt 0.348505 0.238201
vt 0.348525 0.149947
vn 0.0000 -0.0000 1.0000
vn 0.0000 1.0000 0.0000
vn 0.0000 0.0000 -1.0000
vn 0.0000 -1.0000 -0.0000
vn 1.0000 0.0000 0.0000
vn -1.0000 0.0000 0.0000
usemtl blinn4SG.001
s 1
f 1/1/1 2/2/1 3/3/1 4/4/1
f 2/2/1 5/5/1 6/6/1 3/3/1
f 5/5/1 7/7/1 8/8/1 6/6/1
f 7/7/1 9/9/1 10/10/1 8/8/1
f 4/4/1 3/3/1 11/11/1 12/12/1
f 3/3/1 6/6/1 13/13/1 11/11/1
f 6/6/1 8/8/1 14/14/1 13/13/1
f 8/8/1 10/10/1 15/15/1 14/14/1
f 12/12/1 11/11/1 16/16/1 17/17/1
f 11/11/1 13/13/1 18/18/1 16/16/1
f 13/13/1 14/14/1 19/19/1 18/18/1
f 14/14/1 15/15/1 20/20/1 19/19/1
f 17/17/1 16/16/1 21/21/1 22/22/1
f 16/16/1 18/18/1 23/23/1 21/21/1
f 18/18/1 19/19/1 24/24/1 23/23/1
f 19/19/1 20/20/1 25/25/1 24/24/1
f 22/22/2 21/21/2 26/26/2 27/27/2
f 21/21/2 23/23/2 28/28/2 26/26/2
f 23/23/2 24/24/2 29/29/2 28/28/2
f 24/24/2 25/25/2 30/30/2 29/29/2
f 27/27/2 26/26/2 31/31/2 32/32/2
f 26/26/2 28/28/2 33/33/2 31/31/2
f 28/28/2 29/29/2 34/34/2 33/33/2
f 29/29/2 30/30/2 35/35/2 34/34/2
f 32/32/2 31/31/2 36/36/2 37/37/2
f 31/31/2 33/33/2 38/38/2 36/36/2
f 33/33/2 34/34/2 39/39/2 38/38/2
f 34/34/2 35/35/2 40/40/2 39/39/2
f 37/37/2 36/36/2 41/41/2 42/42/2
f 36/36/2 38/38/2 43/43/2 41/41/2
f 38/38/2 39/39/2 44/44/2 43/43/2
f 39/39/2 40/40/2 45/45/2 44/44/2
f 42/42/3 41/41/3 46/46/3 47/47/3
f 41/41/3 43/43/3 48/48/3 46/46/3
f 43/43/3 44/44/3 49/49/3 48/48/3
f 44/44/3 45/45/3 50/50/3 49/49/3
f 47/47/3 46/46/3 51/51/3 52/52/3
f 46/46/3 48/48/3 53/53/3 51/51/3
f 48/48/3 49/49/3 54/54/3 53/53/3
f 49/49/3 50/50/3 55/55/3 54/54/3
f 52/52/3 51/51/3 56/56/3 57/57/3
f 51/51/3 53/53/3 58/58/3 56/56/3
f 53/53/3 54/54/3 59/59/3 58/58/3
f 54/54/3 55/55/3 60/60/3 59/59/3
f 57/57/3 56/56/3 61/61/3 62/62/3
f 56/56/3 58/58/3 63/63/3 61/61/3
f 58/58/3 59/59/3 64/64/3 63/63/3
f 59/59/3 60/60/3 65/65/3 64/64/3
f 62/62/4 61/61/4 66/66/4 67/67/4
f 61/61/4 63/63/4 68/68/4 66/66/4
f 63/63/4 64/64/4 69/69/4 68/68/4
f 64/64/4 65/65/4 70/70/4 69/69/4
f 67/67/4 66/66/4 71/71/4 72/72/4
f 66/66/4 68/68/4 73/73/4 71/71/4
f 68/68/4 69/69/4 74/74/4 73/73/4
f 69/69/4 70/70/4 75/75/4 74/74/4
f 72/72/4 71/71/4 76/76/4 77/77/4
f 71/71/4 73/73/4 78/78/4 76/76/4
f 73/73/4 74/74/4 79/79/4 78/78/4
f 74/74/4 75/75/4 80/80/4 79/79/4
f 77/77/4 76/76/4 2/81/4 1/82/4
f 76/76/4 78/78/4 5/83/4 2/81/4
f 78/78/4 79/79/4 7/84/4 5/83/4
f 79/79/4 80/80/4 9/85/4 7/84/4
f 70/86/5 65/87/5 60/88/5 81/89/5
f 75/90/5 70/86/5 81/89/5 82/91/5
f 80/92/5 75/90/5 82/91/5 83/93/5
f 9/94/5 80/92/5 83/93/5 10/95/5
f 81/89/5 60/88/5 55/96/5 84/97/5
f 82/91/5 81/89/5 84/97/5 85/98/5
f 83/93/5 82/91/5 85/98/5 86/99/5
f 10/95/5 83/93/5 86/99/5 15/100/5
f 84/97/5 55/96/5 50/101/5 87/102/5
f 85/98/5 84/97/5 87/102/5 88/103/5
f 86/99/5 85/98/5 88/103/5 89/104/5
f 15/100/5 86/99/5 89/104/5 20/105/5
f 87/102/5 50/101/5 45/45/5 40/40/5
f 88/103/5 87/102/5 40/40/5 35/35/5
f 89/104/5 88/103/5 35/35/5 30/30/5
f 20/105/5 89/104/5 30/30/5 25/25/5
f 62/106/6 67/107/6 90/108/6 57/109/6
f 67/107/6 72/110/6 91/111/6 90/108/6
f 72/110/6 77/112/6 92/113/6 91/111/6
f 77/112/6 1/114/6 4/115/6 92/113/6
f 57/109/6 90/108/6 93/116/6 52/117/6
f 90/108/6 91/111/6 94/118/6 93/116/6
f 91/111/6 92/113/6 95/119/6 94/118/6
f 92/113/6 4/115/6 12/120/6 95/119/6
f 52/117/6 93/116/6 96/121/6 47/122/6
f 93/116/6 94/118/6 97/123/6 96/121/6
f 94/118/6 95/119/6 98/124/6 97/123/6
f 95/119/6 12/120/6 17/125/6 98/124/6
f 47/122/6 96/121/6 37/37/6 42/42/6
f 96/121/6 97/123/6 32/32/6 37/37/6
f 97/123/6 98/124/6 27/27/6 32/32/6
f 98/124/6 17/125/6 22/22/6 27/27/6
